<svg width="469" height="5268" viewBox="0 0 469 5268" fill="none" xmlns="http://www.w3.org/2000/svg">
<g clip-path="url(#clip0_1343_10304)">
<rect width="375" height="5268" fill="white"/>
<path d="M48.1845 1265.34L48.1844 1265.34C45.9182 1268.6 44.9415 1272.86 44.0297 1277.07C43.9933 1277.24 43.9569 1277.4 43.9206 1277.57C43.0386 1281.65 42.1736 1285.65 40.2828 1288.85C31.709 1303.37 14.3113 1316.18 -4.78319 1317.41C-17.4396 1318.22 -26.8854 1313.46 -35.4726 1307.18C-38.606 1304.9 -41.6122 1302.42 -44.6214 1299.94C-45.7454 1299.01 -46.8699 1298.08 -48.0015 1297.17C-52.1522 1293.8 -56.3858 1290.57 -60.983 1288.03C-73.6993 1280.99 -84.8806 1278.36 -95.3757 1275.89C-98.1406 1275.24 -100.858 1274.6 -103.543 1273.9C-116.411 1270.52 -128.663 1265.6 -142.237 1250.59C-160.282 1230.64 -164.844 1213.48 -161.474 1197.86C-158.093 1182.18 -146.709 1167.94 -132.571 1153.87C-124.558 1145.91 -118.876 1136.37 -113.361 1126.68C-112.885 1125.84 -112.41 1125.01 -111.935 1124.17C-106.899 1115.29 -101.849 1106.38 -95.1135 1098.44C-86.2918 1088.04 -78.1 1081.71 -70.059 1078.19C-62.0242 1074.67 -54.1033 1073.96 -45.7925 1074.85C-37.4685 1075.74 -28.7678 1078.25 -19.1691 1081.19C-18.1289 1081.5 -17.0784 1081.83 -16.0169 1082.15C-7.29462 1084.83 2.16812 1087.74 12.6945 1090.01C19.6837 1091.51 26.9019 1091.54 34.0735 1091.57C36.4231 1091.58 38.7678 1091.59 41.0978 1091.66C50.5751 1091.91 59.8824 1093.01 68.6363 1098.34C74.1642 1101.71 77.8479 1105.16 80.3764 1108.73C82.9043 1112.3 84.2948 1116.02 85.2052 1119.93C85.9103 1122.96 86.3242 1126.1 86.7584 1129.38C86.8871 1130.36 87.0175 1131.35 87.1579 1132.35C87.7699 1136.72 88.5667 1141.34 90.2267 1146.23L90.7002 1146.07L90.2267 1146.23C92.8453 1153.94 97.4666 1160.89 102.021 1167.75C102.98 1169.19 103.935 1170.62 104.868 1172.06C110.258 1180.38 114.928 1188.77 115.441 1198.56C116.496 1218.64 103.277 1230.91 86.7728 1240.56C83.2042 1242.64 79.5921 1244.41 76.0291 1246.09C75.2773 1246.44 74.5272 1246.79 73.78 1247.14C70.9921 1248.45 68.2452 1249.73 65.6029 1251.11C58.8938 1254.6 52.793 1258.71 48.1845 1265.34Z" fill="#CCDFFF" fill-opacity="0.03" stroke="#CCDFFF"/>
<path d="M380.185 1771.34L380.184 1771.34C377.918 1774.6 376.942 1778.86 376.03 1783.07C375.993 1783.24 375.957 1783.4 375.921 1783.57C375.039 1787.65 374.174 1791.65 372.283 1794.85C363.709 1809.37 346.311 1822.18 327.217 1823.41C314.56 1824.22 305.115 1819.46 296.527 1813.18C293.394 1810.9 290.388 1808.42 287.379 1805.94C286.255 1805.01 285.13 1804.08 283.998 1803.17C279.848 1799.8 275.614 1796.57 271.017 1794.03C258.301 1786.99 247.119 1784.36 236.624 1781.89C233.859 1781.24 231.142 1780.6 228.457 1779.9C215.589 1776.52 203.337 1771.6 189.763 1756.59C171.718 1736.64 167.156 1719.48 170.526 1703.86C173.907 1688.18 185.291 1673.94 199.429 1659.87C207.442 1651.91 213.124 1642.37 218.639 1632.68C219.115 1631.84 219.59 1631.01 220.065 1630.17C225.101 1621.29 230.151 1612.38 236.887 1604.44C245.708 1594.04 253.9 1587.71 261.941 1584.19C269.976 1580.67 277.897 1579.96 286.208 1580.85C294.531 1581.74 303.232 1584.25 312.831 1587.19C313.871 1587.5 314.922 1587.83 315.983 1588.15C324.705 1590.83 334.168 1593.74 344.694 1596.01C351.684 1597.51 358.902 1597.54 366.073 1597.57C368.423 1597.58 370.768 1597.59 373.098 1597.66C382.575 1597.91 391.882 1599.01 400.636 1604.34C406.164 1607.71 409.848 1611.16 412.376 1614.73C414.904 1618.3 416.295 1622.02 417.205 1625.93C417.91 1628.96 418.324 1632.1 418.758 1635.38C418.887 1636.36 419.018 1637.35 419.158 1638.35C419.77 1642.72 420.567 1647.34 422.227 1652.23L422.7 1652.07L422.227 1652.23C424.845 1659.94 429.467 1666.89 434.021 1673.75C434.98 1675.19 435.935 1676.62 436.868 1678.06C442.258 1686.38 446.928 1694.77 447.441 1704.56C448.496 1724.64 435.277 1736.91 418.773 1746.56C415.204 1748.64 411.592 1750.41 408.029 1752.09C407.277 1752.44 406.527 1752.79 405.78 1753.14C402.992 1754.45 400.245 1755.73 397.603 1757.11C390.894 1760.6 384.793 1764.71 380.185 1771.34Z" fill="#CCDFFF" fill-opacity="0.03" stroke="#CCDFFF"/>
<path d="M-2.17953 642.735L-2.17963 642.735C-3.63731 644.944 -4.26117 647.823 -4.8383 650.626C-4.86069 650.734 -4.88301 650.843 -4.9053 650.951C-5.4669 653.685 -6.01135 656.334 -7.19864 658.452C-12.6176 668.115 -23.6063 676.621 -35.6393 677.44C-43.5997 677.98 -49.5459 674.826 -54.9778 670.648C-56.9611 669.123 -58.8621 667.473 -60.7698 665.816C-61.4838 665.197 -62.1986 664.576 -62.9191 663.961C-65.5539 661.711 -68.2499 659.547 -71.1814 657.84C-79.2746 653.124 -86.4002 651.359 -93.0612 649.709C-94.8123 649.275 -96.5313 648.85 -98.2273 648.38C-106.363 646.129 -114.101 642.858 -122.684 632.865C-134.107 619.565 -136.979 608.15 -134.852 597.77C-132.716 587.346 -125.522 577.857 -116.557 568.465C-111.457 563.125 -107.843 556.735 -104.345 550.265C-104.043 549.707 -103.742 549.147 -103.44 548.588C-100.244 542.653 -97.0475 536.717 -92.7847 531.424C-87.1983 524.489 -82.022 520.279 -76.9554 517.946C-71.8964 515.616 -66.9089 515.139 -61.6649 515.732C-56.4064 516.327 -50.9042 517.997 -44.8129 519.957C-44.1532 520.169 -43.4868 520.385 -42.8133 520.602C-37.2805 522.392 -31.2689 524.337 -24.5818 525.854C-20.1245 526.866 -15.5142 526.886 -10.9592 526.906C-9.47254 526.913 -7.99179 526.92 -6.52417 526.961C-0.52327 527.128 5.33774 527.863 10.8471 531.396C14.3363 533.634 16.6548 535.924 18.244 538.288C19.8332 540.651 20.7094 543.112 21.2843 545.715C21.7299 547.733 21.9913 549.817 22.2666 552.012C22.3484 552.664 22.4314 553.325 22.5208 553.998C22.9095 556.922 23.4164 560.018 24.4737 563.298L24.9253 563.152L24.4737 563.298C26.1416 568.469 29.0865 573.134 31.9765 577.713C32.5836 578.674 33.1883 579.632 33.7783 580.59C37.1955 586.14 40.1395 591.717 40.4627 598.219C41.128 611.548 32.8042 619.698 22.356 626.129C20.0995 627.517 17.8142 628.692 15.555 629.814C15.0791 630.05 14.6039 630.284 14.1302 630.518C12.3612 631.39 10.6139 632.251 8.93375 633.172C4.66415 635.513 0.765717 638.275 -2.17953 642.735Z" fill="#CCDFFF" stroke="#307880"/>
<path d="M69.6271 4316.4C75.042 4310.77 78.8791 4304.03 82.5946 4297.2C82.9154 4296.61 83.2353 4296.02 83.5551 4295.43C86.9496 4289.17 90.3464 4282.9 94.8758 4277.32C100.811 4269.99 106.313 4265.55 111.7 4263.08C117.08 4260.62 122.384 4260.12 127.959 4260.75C133.548 4261.37 139.395 4263.14 145.865 4265.2C146.565 4265.43 147.273 4265.66 147.988 4265.89C153.865 4267.77 160.249 4269.83 167.35 4271.43C172.08 4272.49 176.972 4272.51 181.809 4272.54C183.389 4272.54 184.963 4272.55 186.523 4272.59C192.899 4272.77 199.132 4273.55 204.991 4277.28C208.7 4279.64 211.166 4282.06 212.856 4284.56C214.547 4287.06 215.478 4289.66 216.089 4292.41C216.563 4294.54 216.841 4296.74 217.133 4299.05C217.22 4299.74 217.308 4300.44 217.403 4301.15C217.816 4304.23 218.354 4307.5 219.477 4310.96C221.247 4316.41 224.373 4321.33 227.442 4326.16C228.087 4327.18 228.73 4328.19 229.357 4329.2C232.987 4335.06 236.117 4340.95 236.46 4347.81C237.168 4361.89 228.316 4370.5 217.215 4377.29C214.817 4378.75 212.389 4379.99 209.989 4381.18C209.483 4381.43 208.978 4381.67 208.475 4381.92C206.596 4382.84 204.741 4383.75 202.957 4384.72C198.424 4387.19 194.288 4390.1 191.164 4394.8L191.164 4394.8C189.619 4397.13 188.957 4400.16 188.344 4403.12C188.32 4403.23 188.296 4403.35 188.272 4403.46C187.676 4406.35 187.097 4409.15 185.834 4411.39C180.075 4421.59 168.395 4430.57 155.6 4431.44C147.133 4432.01 140.809 4428.67 135.037 4424.26C132.93 4422.65 130.91 4420.91 128.883 4419.16C128.125 4418.51 127.366 4417.85 126.601 4417.21C123.803 4414.83 120.941 4412.55 117.83 4410.75C109.238 4405.78 101.675 4403.92 94.6008 4402.17C92.7404 4401.72 90.9137 4401.27 89.111 4400.77C80.4649 4398.39 72.2404 4394.94 63.1192 4384.39C50.9819 4370.35 47.9281 4358.3 50.1887 4347.34C52.4587 4336.33 60.1045 4326.31 69.6271 4316.4ZM69.6271 4316.4L69.2667 4316.05M69.6271 4316.4L69.2667 4316.05M69.2667 4316.05C75.0933 4309.99 79.086 4302.63 83.1182 4295.19C86.5087 4288.93 89.9272 4282.63 94.4874 4277L62.7409 4384.72C38.325 4356.47 50.2033 4335.89 69.2667 4316.05Z" fill="#CCDFFF" fill-opacity="0.03" stroke="#CCDFFF"/>
</g>
<path d="M423.164 3842.8L423.164 3842.8C421.619 3845.13 420.957 3848.16 420.344 3851.12C420.32 3851.23 420.296 3851.35 420.272 3851.46C419.676 3854.35 419.097 3857.15 417.834 3859.39C412.075 3869.59 400.395 3878.57 387.6 3879.44C379.133 3880.01 372.809 3876.67 367.037 3872.26C364.93 3870.65 362.91 3868.91 360.883 3867.16C360.125 3866.51 359.366 3865.85 358.601 3865.21C355.803 3862.83 352.941 3860.55 349.83 3858.75C341.238 3853.78 333.675 3851.92 326.601 3850.17C324.74 3849.72 322.914 3849.27 321.111 3848.77C312.465 3846.39 304.24 3842.94 295.119 3832.39C282.982 3818.35 279.928 3806.3 282.189 3795.34C284.459 3784.33 292.104 3774.31 301.627 3764.4C307.042 3758.77 310.879 3752.03 314.595 3745.2C314.915 3744.61 315.235 3744.02 315.555 3743.43C318.95 3737.17 322.346 3730.9 326.876 3725.32C332.811 3717.99 338.313 3713.55 343.7 3711.08C349.08 3708.62 354.384 3708.12 359.959 3708.75C365.548 3709.37 371.395 3711.14 377.865 3713.2C378.565 3713.43 379.273 3713.66 379.988 3713.89C385.865 3715.77 392.249 3717.83 399.35 3719.43C404.08 3720.49 408.972 3720.51 413.809 3720.54C415.389 3720.54 416.963 3720.55 418.523 3720.59C424.899 3720.77 431.132 3721.55 436.991 3725.28C440.7 3727.64 443.166 3730.06 444.856 3732.56C446.547 3735.06 447.478 3737.66 448.089 3740.41C448.563 3742.54 448.841 3744.74 449.133 3747.05C449.22 3747.74 449.308 3748.44 449.403 3749.15C449.816 3752.23 450.354 3755.5 451.477 3758.96L451.952 3758.8L451.477 3758.96C453.247 3764.41 456.373 3769.33 459.442 3774.16C460.087 3775.18 460.73 3776.19 461.357 3777.2C464.987 3783.06 468.117 3788.95 468.46 3795.81C469.168 3809.89 460.316 3818.5 449.215 3825.29C446.817 3826.75 444.389 3827.99 441.989 3829.18C441.483 3829.43 440.978 3829.67 440.475 3829.92C438.596 3830.84 436.741 3831.75 434.957 3832.72C430.424 3835.19 426.288 3838.1 423.164 3842.8Z" fill="#CCDFFF" fill-opacity="0.03" stroke="#CCDFFF"/>
<defs>
<clipPath id="clip0_1343_10304">
<rect width="375" height="5268" fill="white"/>
</clipPath>
</defs>
</svg>
