<svg width="1024" height="6331" viewBox="0 0 1024 6331" fill="none" xmlns="http://www.w3.org/2000/svg">
<g clip-path="url(#clip0_1343_11440)">
<rect width="1024" height="6331" fill="white"/>
<path d="M121.661 932.515L122.131 932.343L121.661 932.515C127.008 947.15 136.441 960.343 145.777 973.402C147.745 976.154 149.708 978.9 151.628 981.652C162.684 997.502 172.32 1013.58 173.378 1032.36C175.556 1070.87 148.247 1094.39 114.358 1112.8C107.02 1116.78 99.5972 1120.15 92.289 1123.36C90.744 1124.03 89.2037 1124.7 87.6703 1125.37C81.9563 1127.86 76.3384 1130.3 70.9325 1132.92C57.2132 1139.56 44.7891 1147.34 35.4073 1159.88L35.8076 1160.18L35.4072 1159.88C30.8245 1166.01 28.8363 1174.05 26.9629 1182.08C26.8859 1182.41 26.8091 1182.74 26.7324 1183.07C24.9305 1190.82 23.1431 1198.5 19.2267 1204.66C1.58212 1232.44 -34.2292 1256.96 -73.5912 1259.33C-99.7231 1260.89 -119.216 1251.73 -136.87 1239.74C-143.307 1235.37 -149.488 1230.64 -155.661 1225.91C-157.963 1224.14 -160.264 1222.38 -162.577 1220.64C-171.082 1214.22 -179.732 1208.1 -189.115 1203.27C-215.113 1189.9 -237.949 1184.91 -259.457 1180.2C-265.134 1178.96 -270.719 1177.74 -276.245 1176.39C-302.7 1169.93 -327.921 1160.51 -355.834 1131.82C-392.904 1093.72 -402.334 1060.89 -395.386 1030.95C-388.424 1000.95 -364.994 973.72 -335.998 946.905C-319.625 931.775 -308.004 913.649 -296.696 895.186C-295.719 893.59 -294.745 891.993 -293.769 890.394C-283.45 873.476 -273.073 856.466 -259.233 841.297C-241.115 821.441 -224.26 809.313 -207.677 802.571C-191.098 795.831 -174.758 794.459 -157.644 796.169C-140.518 797.88 -122.632 802.675 -102.958 808.263C-100.825 808.869 -98.6707 809.484 -96.4945 810.106C-78.6107 815.213 -59.2334 820.747 -37.6771 825.063C-23.4103 827.922 -8.6951 827.98 5.99347 828.038C10.8214 828.057 15.6465 828.076 20.4518 828.195C39.9117 828.675 59.1121 830.78 77.1828 841.008C88.5659 847.454 96.1741 854.075 101.404 860.942C106.633 867.806 109.503 874.939 111.379 882.437C112.83 888.237 113.682 894.236 114.573 900.506C114.836 902.359 115.103 904.236 115.389 906.139C116.643 914.463 118.272 923.236 121.661 932.515Z" fill="#CCDFFF" stroke="#307880"/>
<path d="M1020.18 1232.34L1020.18 1232.34C1017.92 1235.6 1016.94 1239.86 1016.03 1244.07C1015.99 1244.24 1015.96 1244.4 1015.92 1244.57C1015.04 1248.65 1014.17 1252.65 1012.28 1255.85C1003.71 1270.37 986.311 1283.18 967.217 1284.41C954.56 1285.22 945.115 1280.46 936.527 1274.18C933.394 1271.9 930.388 1269.42 927.379 1266.94C926.255 1266.01 925.13 1265.08 923.998 1264.17C919.848 1260.8 915.614 1257.57 911.017 1255.03C898.301 1247.99 887.119 1245.36 876.624 1242.89C873.859 1242.24 871.142 1241.6 868.457 1240.9C855.589 1237.52 843.337 1232.6 829.763 1217.59C811.718 1197.64 807.156 1180.48 810.526 1164.86C813.907 1149.18 825.291 1134.94 839.429 1120.87C847.442 1112.91 853.124 1103.37 858.639 1093.68C859.115 1092.84 859.59 1092.01 860.065 1091.17C865.101 1082.29 870.151 1073.38 876.887 1065.44C885.708 1055.04 893.9 1048.71 901.941 1045.19C909.976 1041.67 917.897 1040.96 926.208 1041.85C934.531 1042.74 943.232 1045.25 952.831 1048.19C953.871 1048.5 954.922 1048.83 955.983 1049.15C964.705 1051.83 974.168 1054.74 984.694 1057.01C991.684 1058.51 998.902 1058.54 1006.07 1058.57C1008.42 1058.58 1010.77 1058.59 1013.1 1058.66C1022.58 1058.91 1031.88 1060.01 1040.64 1065.34C1046.16 1068.71 1049.85 1072.16 1052.38 1075.73C1054.9 1079.3 1056.29 1083.02 1057.21 1086.93C1057.91 1089.96 1058.32 1093.1 1058.76 1096.38C1058.89 1097.36 1059.02 1098.35 1059.16 1099.35C1059.77 1103.72 1060.57 1108.34 1062.23 1113.23L1062.7 1113.07L1062.23 1113.23C1064.85 1120.94 1069.47 1127.89 1074.02 1134.75C1074.98 1136.19 1075.94 1137.62 1076.87 1139.06C1082.26 1147.38 1086.93 1155.77 1087.44 1165.56C1088.5 1185.64 1075.28 1197.91 1058.77 1207.56C1055.2 1209.64 1051.59 1211.41 1048.03 1213.09C1047.28 1213.44 1046.53 1213.79 1045.78 1214.14C1042.99 1215.45 1040.25 1216.73 1037.6 1218.11C1030.89 1221.6 1024.79 1225.71 1020.18 1232.34Z" fill="#CCDFFF" fill-opacity="0.03" stroke="#CCDFFF"/>
<path d="M681.185 1810.34L681.184 1810.34C678.918 1813.6 677.942 1817.86 677.03 1822.07C676.993 1822.24 676.957 1822.4 676.921 1822.57C676.039 1826.65 675.174 1830.65 673.283 1833.85C664.709 1848.37 647.311 1861.18 628.217 1862.41C615.56 1863.22 606.115 1858.46 597.527 1852.18C594.394 1849.9 591.388 1847.42 588.379 1844.94C587.255 1844.01 586.13 1843.08 584.998 1842.17C580.848 1838.8 576.614 1835.57 572.017 1833.03C559.301 1825.99 548.119 1823.36 537.624 1820.89C534.859 1820.24 532.142 1819.6 529.457 1818.9C516.589 1815.52 504.337 1810.6 490.763 1795.59C472.718 1775.64 468.156 1758.48 471.526 1742.86C474.907 1727.18 486.291 1712.94 500.429 1698.87C508.442 1690.91 514.124 1681.37 519.639 1671.68C520.115 1670.84 520.59 1670.01 521.065 1669.17C526.101 1660.29 531.151 1651.38 537.887 1643.44C546.708 1633.04 554.9 1626.71 562.941 1623.19C570.976 1619.67 578.897 1618.96 587.208 1619.85C595.531 1620.74 604.232 1623.25 613.831 1626.19C614.871 1626.5 615.922 1626.83 616.983 1627.15C625.705 1629.83 635.168 1632.74 645.694 1635.01C652.684 1636.51 659.902 1636.54 667.073 1636.57C669.423 1636.58 671.768 1636.59 674.098 1636.66C683.575 1636.91 692.882 1638.01 701.636 1643.34C707.164 1646.71 710.848 1650.16 713.376 1653.73C715.904 1657.3 717.295 1661.02 718.205 1664.93C718.91 1667.96 719.324 1671.1 719.758 1674.38C719.887 1675.36 720.018 1676.35 720.158 1677.35C720.77 1681.72 721.567 1686.34 723.227 1691.23L723.7 1691.07L723.227 1691.23C725.845 1698.94 730.467 1705.89 735.021 1712.75C735.98 1714.19 736.935 1715.62 737.868 1717.06C743.258 1725.38 747.928 1733.77 748.441 1743.56L748.94 1743.54L748.441 1743.56C749.496 1763.64 736.277 1775.91 719.773 1785.56C716.204 1787.64 712.592 1789.41 709.029 1791.09C708.277 1791.44 707.526 1791.79 706.779 1792.14C703.991 1793.45 701.245 1794.73 698.603 1796.11C691.894 1799.6 685.793 1803.71 681.185 1810.34Z" fill="#CCDFFF" fill-opacity="0.03" stroke="#CCDFFF"/>
<path d="M23.1845 4446.34L23.1844 4446.34C20.9182 4449.6 19.9415 4453.86 19.0297 4458.07C18.9933 4458.24 18.9569 4458.4 18.9206 4458.57C18.0386 4462.65 17.1736 4466.65 15.2828 4469.85C6.70895 4484.37 -10.6887 4497.18 -29.7832 4498.41C-42.4396 4499.22 -51.8854 4494.46 -60.4726 4488.18C-63.606 4485.9 -66.6122 4483.42 -69.6214 4480.94C-70.7454 4480.01 -71.8699 4479.08 -73.0015 4478.17C-77.1522 4474.8 -81.3858 4471.57 -85.983 4469.03C-98.6993 4461.99 -109.881 4459.36 -120.376 4456.89C-123.141 4456.24 -125.858 4455.6 -128.543 4454.9C-141.411 4451.52 -153.663 4446.6 -167.237 4431.59C-185.282 4411.64 -189.844 4394.48 -186.474 4378.86C-183.093 4363.18 -171.709 4348.94 -157.571 4334.87C-149.558 4326.91 -143.876 4317.37 -138.361 4307.68C-137.885 4306.84 -137.41 4306.01 -136.935 4305.17C-131.899 4296.29 -126.849 4287.38 -120.113 4279.44C-111.292 4269.04 -103.1 4262.71 -95.059 4259.19C-87.0242 4255.67 -79.1033 4254.96 -70.7925 4255.85C-62.4685 4256.74 -53.7678 4259.25 -44.1691 4262.19C-43.1289 4262.5 -42.0784 4262.83 -41.0169 4263.15C-32.2946 4265.83 -22.8319 4268.74 -12.3055 4271.01C-5.31628 4272.51 1.90186 4272.54 9.07347 4272.57C11.4231 4272.58 13.7678 4272.59 16.0978 4272.66C25.5751 4272.91 34.8824 4274.01 43.6363 4279.34C49.1642 4282.71 52.8479 4286.16 55.3764 4289.73C57.9043 4293.3 59.2948 4297.02 60.2052 4300.93C60.9103 4303.96 61.3242 4307.1 61.7584 4310.38C61.8871 4311.36 62.0175 4312.35 62.1579 4313.35C62.7699 4317.72 63.5667 4322.34 65.2267 4327.23L65.7002 4327.07L65.2267 4327.23C67.8453 4334.94 72.4666 4341.89 77.0214 4348.75C77.9797 4350.19 78.9351 4351.62 79.8682 4353.06C85.2581 4361.38 89.9283 4369.77 90.4409 4379.56C91.4962 4399.64 78.2767 4411.91 61.7728 4421.56C58.2042 4423.64 54.5921 4425.41 51.0291 4427.09C50.2773 4427.44 49.5272 4427.79 48.78 4428.14C45.9921 4429.45 43.2452 4430.73 40.6029 4432.11C33.8938 4435.6 27.793 4439.71 23.1845 4446.34Z" fill="#CCDFFF" fill-opacity="0.03" stroke="#CCDFFF"/>
<path d="M400.185 3929.34L400.184 3929.34C397.918 3932.6 396.942 3936.86 396.03 3941.07C395.993 3941.24 395.957 3941.4 395.921 3941.57C395.039 3945.65 394.174 3949.65 392.283 3952.85C383.709 3967.37 366.311 3980.18 347.217 3981.41C334.56 3982.22 325.115 3977.46 316.527 3971.18C313.394 3968.9 310.388 3966.42 307.379 3963.94C306.255 3963.01 305.13 3962.08 303.998 3961.17C299.848 3957.8 295.614 3954.57 291.017 3952.03C278.301 3944.99 267.119 3942.36 256.624 3939.89C253.859 3939.24 251.142 3938.6 248.457 3937.9C235.589 3934.52 223.337 3929.6 209.763 3914.59C191.718 3894.64 187.156 3877.48 190.526 3861.86C193.907 3846.18 205.291 3831.94 219.429 3817.87C227.442 3809.91 233.124 3800.37 238.639 3790.68C239.115 3789.84 239.59 3789.01 240.065 3788.17C245.101 3779.29 250.151 3770.38 256.887 3762.44C265.708 3752.04 273.9 3745.71 281.941 3742.19C289.976 3738.67 297.897 3737.96 306.208 3738.85C314.531 3739.74 323.232 3742.25 332.831 3745.19C333.871 3745.5 334.922 3745.83 335.983 3746.15C344.705 3748.83 354.168 3751.74 364.694 3754.01C371.684 3755.51 378.902 3755.54 386.073 3755.57C388.423 3755.58 390.768 3755.59 393.098 3755.66C402.575 3755.91 411.882 3757.01 420.636 3762.34C426.164 3765.71 429.848 3769.16 432.376 3772.73C434.904 3776.3 436.295 3780.02 437.205 3783.93C437.91 3786.96 438.324 3790.1 438.758 3793.38C438.887 3794.36 439.018 3795.35 439.158 3796.35C439.77 3800.72 440.567 3805.34 442.227 3810.23L442.7 3810.07L442.227 3810.23C444.845 3817.94 449.467 3824.89 454.021 3831.75C454.98 3833.19 455.935 3834.62 456.868 3836.06C462.258 3844.38 466.928 3852.77 467.441 3862.56C468.496 3882.64 455.277 3894.91 438.773 3904.56C435.204 3906.64 431.592 3908.41 428.029 3910.09C427.277 3910.44 426.527 3910.79 425.78 3911.14C422.992 3912.45 420.245 3913.73 417.603 3915.11C410.894 3918.6 404.793 3922.71 400.185 3929.34Z" fill="#CCDFFF" fill-opacity="0.03" stroke="#CCDFFF"/>
<path d="M994.185 4608.34L994.184 4608.34C991.918 4611.6 990.942 4615.86 990.03 4620.07C989.993 4620.24 989.957 4620.4 989.921 4620.57C989.039 4624.65 988.174 4628.65 986.283 4631.85C977.709 4646.37 960.311 4659.18 941.217 4660.41C928.56 4661.22 919.115 4656.46 910.527 4650.18C907.394 4647.9 904.388 4645.42 901.379 4642.94C900.255 4642.01 899.13 4641.08 897.998 4640.17C893.848 4636.8 889.614 4633.57 885.017 4631.03C872.301 4623.99 861.119 4621.36 850.624 4618.89C847.859 4618.24 845.142 4617.6 842.457 4616.9C829.589 4613.52 817.337 4608.6 803.763 4593.59C785.718 4573.64 781.156 4556.48 784.526 4540.86C787.907 4525.18 799.291 4510.94 813.429 4496.87C821.442 4488.91 827.124 4479.37 832.639 4469.68C833.115 4468.84 833.59 4468.01 834.065 4467.17C839.101 4458.29 844.151 4449.38 850.887 4441.44C859.708 4431.04 867.9 4424.71 875.941 4421.19C883.976 4417.67 891.897 4416.96 900.208 4417.85C908.531 4418.74 917.232 4421.25 926.831 4424.19C927.871 4424.5 928.922 4424.83 929.983 4425.15C938.705 4427.83 948.168 4430.74 958.694 4433.01C965.684 4434.51 972.902 4434.54 980.073 4434.57C982.423 4434.58 984.768 4434.59 987.098 4434.66C996.575 4434.91 1005.88 4436.01 1014.64 4441.34C1020.16 4444.71 1023.85 4448.16 1026.38 4451.73C1028.9 4455.3 1030.29 4459.02 1031.21 4462.93C1031.91 4465.96 1032.32 4469.1 1032.76 4472.38C1032.89 4473.36 1033.02 4474.35 1033.16 4475.35C1033.77 4479.72 1034.57 4484.34 1036.23 4489.23L1036.7 4489.07L1036.23 4489.23C1038.85 4496.94 1043.47 4503.89 1048.02 4510.75C1048.98 4512.19 1049.94 4513.62 1050.87 4515.06C1056.26 4523.38 1060.93 4531.77 1061.44 4541.56C1062.5 4561.64 1049.28 4573.91 1032.77 4583.56C1029.2 4585.64 1025.59 4587.41 1022.03 4589.09C1021.28 4589.44 1020.53 4589.79 1019.78 4590.14C1016.99 4591.45 1014.25 4592.73 1011.6 4594.11C1004.89 4597.6 998.793 4601.71 994.185 4608.34Z" fill="#CCDFFF" fill-opacity="0.03" stroke="#CCDFFF"/>
<path d="M996.185 3107.34L996.184 3107.34C993.918 3110.6 992.942 3114.86 992.03 3119.07C991.993 3119.24 991.957 3119.4 991.921 3119.57C991.039 3123.65 990.174 3127.65 988.283 3130.85C979.709 3145.37 962.311 3158.18 943.217 3159.41C930.56 3160.22 921.115 3155.46 912.527 3149.18C909.394 3146.9 906.388 3144.42 903.379 3141.94C902.255 3141.01 901.13 3140.08 899.998 3139.17C895.848 3135.8 891.614 3132.57 887.017 3130.03C874.301 3122.99 863.119 3120.36 852.624 3117.89C849.859 3117.24 847.142 3116.6 844.457 3115.9C831.589 3112.52 819.337 3107.6 805.763 3092.59C787.718 3072.64 783.156 3055.48 786.526 3039.86C789.907 3024.18 801.291 3009.94 815.429 2995.87C823.442 2987.91 829.124 2978.37 834.639 2968.68C835.115 2967.84 835.59 2967.01 836.065 2966.17C841.101 2957.29 846.151 2948.38 852.887 2940.44C861.708 2930.04 869.9 2923.71 877.941 2920.19C885.976 2916.67 893.897 2915.96 902.208 2916.85C910.531 2917.74 919.232 2920.25 928.831 2923.19C929.871 2923.5 930.922 2923.83 931.983 2924.15C940.705 2926.83 950.168 2929.74 960.694 2932.01C967.684 2933.51 974.902 2933.54 982.073 2933.57C984.423 2933.58 986.768 2933.59 989.098 2933.66C998.575 2933.91 1007.88 2935.01 1016.64 2940.34C1022.16 2943.71 1025.85 2947.16 1028.38 2950.73C1030.9 2954.3 1032.29 2958.02 1033.21 2961.93C1033.91 2964.96 1034.32 2968.1 1034.76 2971.38C1034.89 2972.36 1035.02 2973.35 1035.16 2974.35C1035.77 2978.72 1036.57 2983.34 1038.23 2988.23L1038.7 2988.07L1038.23 2988.23C1040.85 2995.94 1045.47 3002.89 1050.02 3009.75C1050.98 3011.19 1051.94 3012.62 1052.87 3014.06C1058.26 3022.38 1062.93 3030.77 1063.44 3040.56C1064.5 3060.64 1051.28 3072.91 1034.77 3082.56C1031.2 3084.64 1027.59 3086.41 1024.03 3088.09C1023.28 3088.44 1022.53 3088.79 1021.78 3089.14C1018.99 3090.45 1016.25 3091.73 1013.6 3093.11C1006.89 3096.6 1000.79 3100.71 996.185 3107.34Z" fill="#CCDFFF" fill-opacity="0.03" stroke="#CCDFFF"/>
<path d="M143.185 1765.34L143.184 1765.34C140.918 1768.6 139.942 1772.86 139.03 1777.07C138.993 1777.24 138.957 1777.4 138.921 1777.57C138.039 1781.65 137.174 1785.65 135.283 1788.85C126.709 1803.37 109.311 1816.18 90.2168 1817.41C77.5604 1818.22 68.1146 1813.46 59.5274 1807.18C56.394 1804.9 53.3878 1802.42 50.3786 1799.94C49.2546 1799.01 48.1301 1798.08 46.9985 1797.17C42.8478 1793.8 38.6142 1790.57 34.017 1788.03C21.3007 1780.99 10.1194 1778.36 -0.375664 1775.89C-3.14062 1775.24 -5.85793 1774.6 -8.54313 1773.9C-21.4111 1770.52 -33.6634 1765.6 -47.237 1750.59C-65.282 1730.64 -69.8441 1713.48 -66.4738 1697.86C-63.0928 1682.18 -51.7085 1667.94 -37.5707 1653.87C-29.5583 1645.91 -23.8761 1636.37 -18.3614 1626.68C-17.8851 1625.84 -17.41 1625.01 -16.9349 1624.17C-11.8992 1615.29 -6.84885 1606.38 -0.113472 1598.44C8.70818 1588.04 16.9 1581.71 24.941 1578.19C32.9758 1574.67 40.8967 1573.96 49.2075 1574.85C57.5315 1575.74 66.2322 1578.25 75.8309 1581.19C76.8711 1581.5 77.9216 1581.83 78.9831 1582.15C87.7054 1584.83 97.1681 1587.74 107.694 1590.01C114.684 1591.51 121.902 1591.54 129.073 1591.57C131.423 1591.58 133.768 1591.59 136.098 1591.66C145.575 1591.91 154.882 1593.01 163.636 1598.34C169.164 1601.71 172.848 1605.16 175.376 1608.73C177.904 1612.3 179.295 1616.02 180.205 1619.93C180.91 1622.96 181.324 1626.1 181.758 1629.38C181.887 1630.36 182.018 1631.35 182.158 1632.35C182.77 1636.72 183.567 1641.34 185.227 1646.23L185.7 1646.07L185.227 1646.23C187.845 1653.94 192.467 1660.89 197.021 1667.75C197.98 1669.19 198.935 1670.62 199.868 1672.06C205.258 1680.38 209.928 1688.77 210.441 1698.56C211.496 1718.64 198.277 1730.91 181.773 1740.56C178.204 1742.64 174.592 1744.41 171.029 1746.09C170.277 1746.44 169.527 1746.79 168.78 1747.14C165.992 1748.45 163.245 1749.73 160.603 1751.11C153.894 1754.6 147.793 1758.71 143.185 1765.34Z" fill="#CCDFFF" fill-opacity="0.03" stroke="#CCDFFF"/>
</g>
<defs>
<clipPath id="clip0_1343_11440">
<rect width="1024" height="6331" fill="white"/>
</clipPath>
</defs>
</svg>
